<?xml version="1.0" encoding="UTF-8"?>
<svg width="24px" height="24px" viewBox="0 0 24 24" version="1.1" xmlns="http://www.w3.org/2000/svg" xmlns:xlink="http://www.w3.org/1999/xlink">
    <!-- Generator: Sketch 62 (91390) - https://sketch.com -->
    <title>Fill 33</title>
    <desc>Created with Sketch.</desc>
    <g id="Symbols" stroke="none" stroke-width="1" fill="none" fill-rule="evenodd">
        <g id="Social-icons" transform="translate(-103.000000, -3.000000)" fill="#FFFFFF">
            <path d="M123.45175,23.45025 L119.89225,23.45025 L119.89225,17.88075 C119.89225,16.5525 119.86975,14.844 118.04275,14.844 C116.191,14.844 115.90825,16.2915 115.90825,17.7855 L115.90825,23.45025 L112.3525,23.45025 L112.3525,11.997 L115.765,11.997 L115.765,13.563 L115.81375,13.563 C116.2885,12.66225 117.4495,11.71275 119.18125,11.71275 C122.78575,11.71275 123.45175,14.08425 123.45175,17.169 L123.45175,23.45025 Z M108.33925,10.4325 C107.1955,10.4325 106.27375,9.50775 106.27375,8.36775 C106.27375,7.2285 107.1955,6.30375 108.33925,6.30375 C109.47775,6.30375 110.4025,7.2285 110.4025,8.36775 C110.4025,9.50775 109.47775,10.4325 108.33925,10.4325 L108.33925,10.4325 Z M110.11975,23.45025 L106.5565,23.45025 L106.5565,11.997 L110.11975,11.997 L110.11975,23.45025 Z M126.00025,3 L104.0005,3 C103.44775,3 103,3.44775 103,3.99975 L103,25.9995 C103,26.55225 103.44775,27 104.0005,27 L126.00025,27 C126.55225,27 127,26.55225 127,25.9995 L127,3.99975 C127,3.44775 126.55225,3 126.00025,3 L126.00025,3 Z" id="Fill-33"></path>
        </g>
    </g>
</svg>